HIERARCHY
ROOT ROOT
{
	OFFSET 0.000000 56.020000 -5.659234
	CHANNELS 6 Xposition Yposition Zposition Xrotation Yrotation Zrotation 
	JOINT C_spine0001_bind_JNT
	{
		OFFSET 0.000000 1.618999 0.000000
		CHANNELS 3 Xrotation Yrotation Zrotation
		JOINT C_spine0002_bind_JNT
		{
			OFFSET 0.000000 4.942001 0.000001
			CHANNELS 3 Xrotation Yrotation Zrotation
			JOINT C_spine0003_bind_JNT
			{
				OFFSET 0.000000 4.942001 -0.000000
				CHANNELS 3 Xrotation Yrotation Zrotation
				JOINT C_neck0001_bind_JNT
				{
					OFFSET 0.000000 17.026009 -0.000000
					CHANNELS 3 Xrotation Yrotation Zrotation
					JOINT C_neck0002_bind_JNT
					{
						OFFSET 0.000000 3.249985 0.000000
						CHANNELS 3 Xrotation Yrotation Zrotation
						JOINT C_head_bind_JNT
						{
							OFFSET 0.000000 5.278008 0.000000
							CHANNELS 3 Xrotation Yrotation Zrotation
							End Site
							{
								OFFSET 0.000000 0.000000 0.000000
							}
						}
					}
				}
				JOINT L_clavicle_bind_JNT
				{
					OFFSET 4.590000 12.067001 0.834000
					CHANNELS 3 Xrotation Yrotation Zrotation
					JOINT L_armUpper0001_bind_JNT
					{
						OFFSET 7.812635 0.512001 -3.452945
						CHANNELS 3 Xrotation Yrotation Zrotation
						JOINT L_armLower0001_bind_JNT
						{
							OFFSET 15.265892 -6.552116 -0.058157
							CHANNELS 3 Xrotation Yrotation Zrotation
							JOINT L_hand0001_bind_JNT
							{
								OFFSET 14.747667 -6.369995 5.049225
								CHANNELS 3 Xrotation Yrotation Zrotation
								End Site
								{
									OFFSET 0.000000 0.000000 0.000000
								}
							}
						}
					}
				}
				JOINT R_clavicle_bind_JNT
				{
					OFFSET -4.590000 12.067001 0.834000
					CHANNELS 3 Xrotation Yrotation Zrotation
					JOINT R_armUpper0001_bind_JNT
					{
						OFFSET -7.812635 0.512001 -3.452945
						CHANNELS 3 Xrotation Yrotation Zrotation
						JOINT R_armLower0001_bind_JNT
						{
							OFFSET -15.265890 -6.552124 -0.058160
							CHANNELS 3 Xrotation Yrotation Zrotation
							JOINT R_hand0001_bind_JNT
							{
								OFFSET -14.746784 -6.369629 5.048937
								CHANNELS 3 Xrotation Yrotation Zrotation
								End Site
								{
									OFFSET 0.000000 0.000000 0.000000
								}
							}
						}
					}
				}
			}
		}
	}
	JOINT C_pelvis0001_bind_JNT
	{
		OFFSET -0.000000 0.000000 0.000000
		CHANNELS 3 Xrotation Yrotation Zrotation
		JOINT L_legUpper0001_bind_JNT
		{
			OFFSET 6.599999 -6.027000 0.539000
			CHANNELS 3 Xrotation Yrotation Zrotation
			JOINT L_legLower0001_bind_JNT
			{
				OFFSET -0.140713 -19.187443 0.040261
				CHANNELS 3 Xrotation Yrotation Zrotation
				JOINT L_foot0001_bind_JNT
				{
					OFFSET -0.132215 -18.028637 -1.138370
					CHANNELS 3 Xrotation Yrotation Zrotation
					JOINT L_foot0002_bind_JNT
					{
						OFFSET 0.007014 -4.693133 9.886524
						CHANNELS 3 Xrotation Yrotation Zrotation
						End Site
						{
							OFFSET 0.000000 0.000000 0.000000
						}
					}
				}
			}
		}
		JOINT R_legUpper0001_bind_JNT
		{
			OFFSET -6.599999 -6.027000 0.539000
			CHANNELS 3 Xrotation Yrotation Zrotation
			JOINT R_legLower0001_bind_JNT
			{
				OFFSET 0.140710 -19.187164 0.040550
				CHANNELS 3 Xrotation Yrotation Zrotation
				JOINT R_foot0001_bind_JNT
				{
					OFFSET 0.132215 -18.028633 -1.138362
					CHANNELS 3 Xrotation Yrotation Zrotation
					JOINT R_foot0002_bind_JNT
					{
						OFFSET -0.007014 -4.693128 9.886505
						CHANNELS 3 Xrotation Yrotation Zrotation
						End Site
						{
							OFFSET 0.000000 0.000000 0.000000
						}
					}
				}
			}
		}
	}
}
MOTION
Frames: 10
Frame Time: 0.033333
1.757164 48.837368 63.047977 0.019336 -4.861675 -0.022715 0.845897 12.893115 -0.597513 -4.641222 -0.868719 -0.737061 2.685792 -0.693288 -1.786221 17.101175 1.639854 -0.975081 0.072144 -0.372024 -0.090951 -4.771482 3.484540 -0.161735 14.441193 4.059958 24.651190 -20.147165 -3.340903 -78.891090 -16.738045 25.947487 -13.576294 -6.396848 -13.116161 -27.352304 16.850126 -2.884821 -18.878635 -25.528667 2.569554 82.183594 12.356820 -21.498285 4.437987 -10.943027 13.359071 33.461361 3.946632 14.778951 -0.125209 -11.978411 6.224901 3.729852 41.940250 1.726150 -0.116773 -0.505916 -10.738826 -2.194602 -22.202530 -2.568987 3.685020 -6.582759 -0.810978 2.012969 10.416487 -1.902702 0.759506 -6.377543 12.205130 -1.767446 -1.206450 1.474930 -0.986740 
1.880275 48.889477 63.811199 0.018951 -4.623585 -0.027955 0.886302 12.779397 -0.503161 -4.609966 -0.763002 -0.803189 2.770899 -0.632222 -1.810503 16.975685 1.607743 -0.980376 0.041735 -0.387618 -0.099967 -4.943599 3.375450 -0.101127 14.302665 4.054326 24.584164 -19.694942 -2.937003 -78.787117 -16.635832 26.196526 -13.283837 -6.361296 -13.080143 -27.514404 16.678602 -2.878162 -18.741396 -26.346128 2.722953 82.081757 12.178053 -21.388088 4.312685 -10.853625 13.153604 33.398766 3.894434 14.407166 0.324655 -13.404913 6.751703 3.246706 39.876034 1.420224 -0.445804 -1.635344 -10.485685 -1.307630 -20.025496 -2.618509 2.866683 -5.292562 -0.690939 1.522235 9.703663 -1.963701 0.792539 -6.447085 12.402622 -1.697364 -1.677841 1.486146 -1.014180 
2.032728 48.928108 64.632347 0.021524 -4.410051 -0.024571 0.988827 12.711390 -0.483175 -4.618099 -0.652082 -0.786923 2.830741 -0.566204 -1.800723 16.868517 1.530684 -1.001778 0.043601 -0.308563 -0.113777 -5.091952 3.189515 -0.163773 14.281378 3.961729 24.474167 -19.256996 -2.613463 -78.661842 -16.467190 26.434822 -13.103724 -6.366862 -13.024735 -27.535954 16.449209 -2.920965 -18.723940 -26.972773 2.954476 81.938797 11.971475 -21.148792 4.359437 -10.787951 12.888304 33.301182 3.885362 14.032007 0.561043 -14.790053 7.318649 2.876627 37.278851 0.987312 -0.551730 -2.384213 -10.639328 -0.841109 -17.790068 -2.505307 2.102558 -4.064939 -0.305516 1.254727 9.209247 -2.194585 0.907256 -6.618848 12.516976 -1.677005 -2.236816 1.483695 -1.031587 
2.240938 48.916096 65.502983 0.020053 -4.225516 -0.025962 1.042535 12.560516 -0.488028 -4.525695 -0.553336 -0.747017 2.845007 -0.497534 -1.772234 16.792934 1.464286 -1.061462 0.010929 -0.252990 -0.108934 -5.289655 3.172744 -0.221859 14.189073 3.922757 24.356052 -18.647104 -2.249691 -78.757080 -16.286427 26.799665 -12.656559 -6.274817 -13.095647 -27.865911 16.404171 -3.076318 -18.786150 -27.695499 3.189289 81.947060 11.626307 -20.742895 4.279565 -10.679717 12.722301 33.219700 3.913268 13.580712 0.600462 -15.968015 7.940964 2.586647 33.098785 0.652077 -0.687195 -2.752635 -11.047164 -0.581827 -14.304877 -2.587726 1.622114 -2.832692 -0.010719 1.061455 8.986823 -2.244422 1.019803 -6.940457 12.523821 -1.699781 -2.932352 1.496909 -1.004130 
2.482453 48.899761 66.459618 0.019255 -4.034285 -0.022159 1.256279 12.412972 -0.529325 -4.595775 -0.471231 -0.678390 2.896893 -0.494437 -1.786533 16.679148 1.480168 -1.071797 0.042520 -0.278557 -0.101559 -5.476228 3.062077 -0.280156 14.275985 3.914501 24.416508 -18.149385 -1.815041 -78.918228 -16.083223 27.141979 -12.273436 -6.086086 -13.103203 -28.101023 16.252581 -3.209496 -18.764780 -28.402191 3.512508 81.770020 11.331592 -20.366167 4.328449 -10.711955 12.600639 33.221081 4.057315 13.185257 0.609915 -16.740307 8.619039 2.243108 28.356653 0.254108 -0.429032 -2.839199 -11.597836 -1.063100 -10.767444 -2.566123 1.274327 -1.759672 0.400670 0.855120 8.899639 -2.315756 1.195104 -7.401046 12.521407 -1.685647 -3.551184 1.486588 -1.035957 
2.734876 48.843452 67.491447 0.018101 -3.852998 -0.025622 1.377955 12.234987 -0.500796 -4.539360 -0.393271 -0.656873 2.865445 -0.476585 -1.758107 16.627111 1.364635 -1.079553 0.045422 -0.166401 -0.167823 -5.789580 2.952439 -0.323034 14.436675 4.002124 24.569237 -17.622063 -1.595310 -79.242378 -15.870738 27.549170 -11.827493 -6.152513 -13.218902 -28.434668 16.283897 -3.529786 -19.039478 -28.985983 3.854004 81.999977 10.842096 -19.841269 4.291822 -10.790566 12.725051 33.132668 4.147915 12.645905 0.446056 -17.366653 9.402287 2.128415 22.880615 -0.288268 -0.258046 -2.864625 -12.022804 -1.680362 -7.693598 -2.550207 0.865746 -0.463045 0.978691 0.833173 8.785545 -2.536952 1.394978 -7.984184 12.577191 -1.576320 -4.203861 1.520734 -1.084717 
3.042332 48.781277 68.598152 0.017162 -3.690534 -0.025624 1.538981 12.034216 -0.510265 -4.518579 -0.295055 -0.645206 2.874701 -0.500264 -1.694854 16.439053 1.302949 -1.132683 0.036278 -0.245195 -0.174061 -5.812009 2.868297 -0.393919 14.707608 3.949487 24.528055 -17.156027 -1.146355 -79.339340 -15.604425 27.884439 -11.326118 -6.057611 -13.222077 -28.789427 16.202051 -3.845337 -19.136450 -29.492382 4.217765 81.967026 10.604499 -19.318316 4.347803 -10.841267 12.810884 33.195965 4.335157 12.199246 0.218080 -17.955256 10.105329 2.111045 18.187569 -1.037419 -0.095168 -2.709581 -12.255809 -2.538399 -5.795220 -2.443418 0.502034 0.652789 1.329288 0.848540 8.729754 -2.687991 1.532522 -8.694430 12.631952 -1.401586 -4.659206 1.596477 -1.175290 
3.370889 48.710243 69.703156 0.017948 -3.497080 -0.025875 1.665022 11.772593 -0.600329 -4.492804 -0.245723 -0.622954 2.822672 -0.512040 -1.688587 16.398251 1.261062 -1.079531 -0.023808 -0.161458 -0.245828 -6.145236 2.760966 -0.420154 14.940193 3.981269 24.425631 -16.613142 -0.900026 -79.396484 -15.401616 28.200558 -10.815882 -5.959265 -13.288547 -29.079762 16.231083 -4.150247 -19.114506 -29.805712 4.659796 82.135818 10.120655 -18.815430 4.191631 -10.836449 13.099093 33.249359 4.530899 11.607652 -0.018286 -18.876308 10.900016 2.144826 14.527374 -1.896693 -0.114479 -2.297379 -12.800895 -2.890686 -4.360051 -2.343249 0.021315 1.765514 1.749601 0.769650 8.782259 -2.823138 1.697853 -9.206262 12.697574 -1.141500 -5.450611 1.684557 -1.547737 
3.717472 48.646732 70.874092 0.019737 -3.485954 -0.027924 1.755546 11.461042 -0.705935 -4.530283 -0.088337 -0.570498 2.798148 -0.442265 -1.673734 16.354061 1.187633 -1.096454 0.018105 -0.159199 -0.193913 -6.199861 2.683726 -0.451856 15.231966 3.892092 24.316082 -16.032892 -0.540962 -79.314224 -15.237379 28.450039 -10.535032 -5.720952 -13.304580 -29.216484 16.245491 -4.331997 -19.007898 -30.114815 4.985474 82.109856 9.930656 -18.451895 4.235791 -10.856047 13.228131 33.264454 4.644677 10.981471 -0.068478 -19.621964 11.724746 1.991799 11.855831 -2.663384 -0.116476 -1.573540 -13.296369 -3.201545 -3.126015 -2.313510 -0.278432 3.012992 2.020086 0.481267 9.012000 -2.800353 1.780613 -9.815792 12.903418 -0.849165 -6.375815 1.818150 -1.876130 
4.070549 48.560196 72.084221 0.021790 -3.342965 -0.028722 1.844928 11.018052 -0.907614 -4.528642 0.010597 -0.544201 2.738599 -0.389137 -1.666491 16.373037 1.206188 -1.047943 -0.004287 -0.149309 -0.242671 -6.324217 2.640936 -0.386583 15.247305 3.818646 24.078176 -15.366767 -0.341816 -79.109367 -14.883169 28.722084 -10.255441 -5.692072 -13.443709 -29.454082 16.364754 -4.394052 -18.735895 -30.273842 5.303142 82.090729 9.707096 -18.184601 4.349072 -10.786272 13.417354 33.025127 4.821132 10.309500 -0.135973 -20.493523 12.270442 1.860666 10.766467 -3.424109 -0.103870 -0.758538 -13.948133 -3.172987 -1.726234 -2.121252 -0.307827 4.184612 2.169466 0.165232 9.293556 -2.855585 1.892618 -10.277275 13.265673 -0.471032 -7.497051 2.003544 -2.472801 
